{"accessors" : [{"bufferView" : 0, "byteOffset" : 0, "componentType" : 5126, "count" : 52828, "type" : "VEC3", "max" : [4.047009468078613, 0.046543605625629425, 3.2860751152038574], "min" : [-3.0042266845703125, -1.9719585180282593, -3.6687073707580566], "name" : "POSITION"}, {"bufferView" : 0, "byteOffset" : 12, "componentType" : 5126, "count" : 52828, "type" : "VEC3", "max" : [0, 1, 0], "min" : [0, 1, 0], "name" : "NORMAL"}], "asset" : {"generator" : "Aspose.3D 24.6.0", "version" : "2.0"}, "buffers" : [{"uri" : "buffer.bin", "byteLength" : 1267876}], "bufferViews" : [{"buffer" : 0, "byteOffset" : 0, "byteLength" : 1267872, "byteStride" : 24, "target" : 34962}], "meshes" : [{"primitives" : [{"attributes" : {"POSITION" : 0, "NORMAL" : 1}, "mode" : 0}], "name" : ""}], "nodes" : [{"mesh" : 0, "name" : "model"}], "scene" : 0, "scenes" : [{"nodes" : [0]}]}